<?xml version="1.0" encoding="UTF-8"?>
<!DOCTYPE svg PUBLIC "-//W3C//DTD SVG 1.1//EN" "http://www.w3.org/Graphics/SVG/1.1/DTD/svg11.dtd">
<svg version="1.1" xmlns="http://www.w3.org/2000/svg" width="300px" height="300px">
<path fill="#0061AA" d="M141.601,11.139c1.428-0.057,2.436,1.25,2.476,2.508c0.059,1.436-1.004,2.562-2.458,2.615  c-1.308,0.047-2.496-1.12-2.549-2.502c-0.029-0.7,0.221-1.358,0.702-1.843C140.245,11.446,140.891,11.163,141.601,11.139   M148.169,10.891c-1.458,0.057-2.553,1.208-2.506,2.625c0.051,1.226,1.107,2.552,2.559,2.503c1.481-0.06,2.515-1.176,2.456-2.659  C150.633,12.126,149.611,10.84,148.169,10.891 M246.533,238.024c2.244-0.138,4.519-1.448,6.248-3.581  c0.338-0.42,0.67-0.884,0.968-1.392c0.935-1.594,1.474-3.579,1.222-5.506c0.521,0.423,1.596,1.291,1.596,1.291l3.222-4.521  l-0.388-0.419c-1.347,0.791-2.76-0.449-3.937-1.417l-11.267-9.097c-1.21-0.954-3.42-2.569-2.923-4.048l-0.417-0.227l-3.935,5.514  l0.362,0.395c1.324-0.775,3.039,0.68,4.219,1.649l8.768,7.097c1.057,0.847,1.669,1.335,1.972,2.481  c0.499,1.76,0.026,3.773-1.281,5.386c-1.014,1.26-2.151,1.958-3.394,2.095c-1.544,0.167-3.302-0.539-5.218-2.095l-7.83-6.318  c-1.2-0.946-2.998-2.326-2.524-3.785l-0.441-0.26l-4.648,4.945l0.296,0.339c1.248-0.706,3.223,0.891,4.604,2.035l7.869,6.36  C241.843,236.705,243.709,238.201,246.533,238.024 M181.332,21.884c1.111,0.87,0.646,2.81,0.175,4.509l-3.815,14.039  c-0.461,1.6-0.918,3.707-2.431,3.823l-0.083,0.521l6.59,1.79l0.2-0.464c-1.24-0.9-0.572-3.055-0.175-4.557l3.797-13.976  c0.387-1.488,0.919-3.705,2.451-3.857l0.066-0.523l-6.574-1.784L181.332,21.884 M281.7,141.826  c-0.488,1.318-2.483,1.456-4.252,1.511l-14.53,0.571c-1.666,0.038-3.808,0.239-4.38-1.167l-0.521,0.072l0.269,6.815l0.494,0.065  c0.493-1.457,2.745-1.468,4.3-1.537l14.476-0.569c1.538-0.077,3.813-0.233,4.414,1.185l0.521-0.098l-0.275-6.808L281.7,141.826   M55.034,76.324c0.445-0.559,3.476-4.23,3.939-4.784c-0.703-0.233-6.909-2.274-8.081-2.663  C51.491,69.955,54.674,75.681,55.034,76.324 M75.298,71.771l-5.406,5.506l-0.446-0.275c0.11-0.396,0.075-0.755,0.021-0.973  c-0.156-0.623-0.488-0.796-2.078-1.317l-5.388-1.8l-5.488,6.657c0,0,2.612,4.479,2.612,4.485c0.589,1.029,1.188,1.888,1.778,2.047  c0.329,0.086,0.744,0.155,1.254-0.141l0.353,0.335l-3.842,5.63l-0.454-0.239c0.413-1.643-0.671-3.336-1.951-5.898  c0,0-8.008-14.622-8.106-14.786c-1.301-2.305-2.526-1.634-2.526-1.634l-0.317-0.435l3.608-4.443l19.781,6.211  c2.37,0.659,4.497,1.455,6.321,0.659L75.298,71.771z M229.727,256.979c-2.025,0.515-3.761,0.173-8.248-1.463  c0,0-6.918-2.487-7.576-2.747c1.891-1.911,3.03-5.511,1.367-8.188c-1.95-3.142-5.782-3.75-9.836-1.36l-7.47,4.082l0.176,0.47  c1.521-0.27,2.562,1.483,3.349,2.872l7.105,13.354c0.763,1.58,1.553,3.016,0.574,4.183l0.363,0.341l6.064-3.321l-0.129-0.467  c-1.52,0.294-2.305-1.238-3.237-2.941l-7.804-14.568l1.802-1.095c1.483-0.903,4.176-1.556,5.592,0.984  c1.666,2.995-0.933,5.769-2.68,7.19l-0.226,0.188l11.48,4.547c2.311,0.851,4.628,0.498,7.101-0.417l2.415-1.176L229.727,256.979   M237.872,248.614c-1.944,0.335-2.837-0.754-4.12-2.268c0,0-10.084-11.903-10.461-12.34c0.364-0.315,2.233-1.897,2.233-1.897  c1.219-1.037,2.297-1.46,3.085-1.033l0.336-0.337l-2.063-4.367c0,0-0.539,1.018-1.339,1.745c-0.807,0.728-10.286,8.775-10.89,9.245  c-0.613,0.467-1.595,0.743-1.595,0.743l1.942,4.368l0.436-0.021c0,0,0.348-1.929,2.421-3.838l2.182-1.85l10.486,12.342  c0.932,1.084,2.334,2.658,1.844,3.947c-0.03,0.075-0.069,0.236-0.125,0.308l0.419,0.32l5.457-4.604L237.872,248.614   M177.986,279.118c-1.851-0.668-2.099-2.057-2.464-4.001c0,0-2.941-15.325-3.052-15.893c0.487-0.093,2.884-0.551,2.884-0.551  c1.568-0.298,2.72-0.146,3.192,0.614l0.459-0.118l0.347-4.826c0,0-0.962,0.629-2.015,0.865c-1.061,0.239-13.277,2.58-14.039,2.693  c-0.754,0.104-1.747-0.135-1.747-0.135l-0.46,4.757l0.403,0.201c0,0,1.241-1.511,3.982-2.16l2.815-0.536l3.055,15.898  c0.285,1.415,0.722,3.468-0.332,4.35c-0.066,0.049-0.183,0.165-0.26,0.213l0.206,0.473l7.012-1.316L177.986,279.118 M57.483,92.921  c-1.712,0.979-2.926,0.255-4.65-0.724c0,0-13.551-7.743-14.045-8.031c0.241-0.427,1.452-2.546,1.452-2.546  c0.799-1.393,1.665-2.157,2.549-2.029l0.201-0.424l-3.43-3.409c0,0-0.152,1.145-0.66,2.104c-0.51,0.959-6.679,11.755-7.093,12.402  c-0.404,0.646-1.235,1.245-1.235,1.245l3.315,3.447l0.411-0.179c0,0-0.508-1.7,0.954-4.431l1.425-2.48l14.053,8.027  c1.263,0.7,3.292,1.541,2.996,3.56c0,0.031,0.5,0.159,0.5,0.159l3.644-6.334L57.483,92.921 M98.859,54.132  c-1.979-0.019-2.661-1.248-3.657-2.966c0,0-7.816-13.506-8.105-14.005c0.427-0.248,2.543-1.47,2.543-1.47  c1.382-0.801,2.519-1.028,3.214-0.467l0.392-0.263l-1.251-4.676c0,0-0.712,0.913-1.634,1.487  c-0.918,0.571-11.673,6.798-12.354,7.155c-0.683,0.358-1.696,0.455-1.696,0.455l1.128,4.644l0.439,0.053  c0,0,0.431-1.721,3.052-3.351l2.486-1.433l8.112,14.009c0.739,1.239,2.067,2.986,0.799,4.582c-0.015,0.022,0.358,0.395,0.358,0.395  l6.325-3.646L98.859,54.132 M109.411,24.007l0.081,0.489c1.53,0.029,2.265,2.199,2.765,3.644l3.488,10.727  c0.401,1.349,0.73,2.007,0.389,3.149c-0.474,1.758-1.783,3.154-3.738,3.881c-2.955,1.095-5.196,0.809-7.15-4.045l-3.606-9.896  c-0.536-1.43-1.352-3.551-0.186-4.544l-0.248-0.458l-6.374,2.675l0.103,0.542c1.546,0.02,2.169,1.66,2.684,3.165l3.751,9.97  c2.718,7.477,6.786,7.548,11.128,5.936c2.041-0.755,4.252-2.304,5.309-4.631c0.239,0.655,0.672,1.866,0.672,1.866l5.386-1.468  l-0.102-0.47c-1.735-0.129-2.415-2.634-2.92-4.076l-4.572-13.725c-0.539-1.445-1.271-3.252-0.078-4.262l-0.239-0.419L109.411,24.007   M149.3,17.701l-0.065,0.487c1.449,0.492,1.492,2.78,1.528,4.312l0.096,11.278c-0.024,1.403,0.092,2.133-0.569,3.115  c-0.996,1.537-2.659,2.477-4.742,2.574c-3.142,0.164-5.203-0.796-5.591-6l-0.462-10.534c-0.071-1.523-0.216-3.78,1.19-4.384  l-0.092-0.511l-6.886,0.628l-0.066,0.552c1.467,0.479,1.562,2.236,1.604,3.822l0.568,10.64c0.342,7.946,4.195,9.243,8.817,9.012  c2.183-0.104,4.755-0.916,6.473-2.813c0.021,0.691,0.074,1.981,0.074,1.981l5.584,0.227l0.042-0.478  c-1.625-0.652-1.518-3.235-1.559-4.77l-0.222-14.464c-0.082-1.54-0.232-3.483,1.203-4.086l-0.099-0.473L149.3,17.701   M175.229,39.289c-2.148,1.395-4.363,1.555-6.571,1.11l-4.51-0.951l2.235-15.738c0.195-1.518,0.455-3.947,1.967-4.276l-0.009-0.509  l-6.79-0.79l-0.106,0.508c1.376,0.749,0.966,2.995,0.724,4.516l-2.048,14.333c-0.196,1.528-0.428,3.794-1.949,4.102l-0.031,0.518  l14.803,2.11l2.638-4.668L175.229,39.289 M253.61,103.397c-2.401-0.865-3.866-2.54-4.841-4.569l-1.97-4.17l13.907-7.714  c1.319-0.67,3.414-2.019,4.59-1.012l0.398-0.32l-3.471-5.883l-0.461,0.213c0.229,1.552-1.8,2.519-3.168,3.309l-12.654,7.02  c-1.346,0.759-3.321,1.923-4.473,0.891l-0.42,0.303l7.253,13.086l5.314-0.714L253.61,103.397 M227.519,58.205  c2.803-3.956,3.286-9.928-1.33-13.192c-2.047-1.455-4.299-2.02-6.5-1.643c-2.312,0.398-4.432,1.819-5.98,4.005  c-1.302,1.84-2.029,4.192-1.96,6.493c0.08,2.553,1.143,5.055,3.5,6.724c1.997,1.415,4.189,1.96,6.353,1.592  C223.878,61.796,225.981,60.385,227.519,58.205 M231.762,60.332c-1.957,2.778-4.867,4.623-8.178,5.186  c-3.521,0.607-7.285-0.285-10.32-2.433c-3.058-2.157-5.149-5.383-5.735-8.855c-0.56-3.235,0.21-6.538,2.166-9.297  c1.909-2.696,4.807-4.471,8.172-5.003c3.626-0.58,7.31,0.354,10.368,2.627c2.997,2.101,4.979,5.149,5.57,8.572  C234.373,54.396,233.652,57.666,231.762,60.332z M247.314,79.592c3.669-3.171,5.581-8.844,1.879-13.132  c-1.642-1.897-3.689-2.995-5.922-3.162c-2.329-0.165-4.729,0.706-6.761,2.459c-1.702,1.475-2.969,3.578-3.459,5.829  c-0.542,2.502-0.114,5.182,1.776,7.369c1.599,1.85,3.6,2.917,5.781,3.073C242.914,82.201,245.299,81.332,247.314,79.592   M250.924,82.671c-2.571,2.223-5.838,3.315-9.194,3.067c-3.562-0.26-6.999-2.025-9.423-4.845c-2.448-2.832-3.704-6.46-3.45-9.972  c0.246-3.276,1.786-6.293,4.342-8.5c2.504-2.161,5.74-3.189,9.141-2.897c3.661,0.309,7.011,2.104,9.422,5.039  c2.415,2.771,3.605,6.203,3.355,9.665C254.885,77.54,253.396,80.538,250.924,82.671z M272.18,120.588  c-3.711,0.627-4.772,4.607-5.709,8.112c-0.781,2.898-1.509,5.636-3.563,5.983c-2.785,0.467-3.521-3.064-3.646-3.779  c-0.337-1.981,0.15-4.217,1.235-5.707l0.441-0.593l-4.947,0.837l-0.032,0.216c-0.234,1.763-0.203,3.616,0.113,5.498  c0.545,3.233,1.919,5.842,3.773,7.162c1.241,0.871,2.667,1.185,4.234,0.921c4.23-0.718,5.26-4.691,6.163-8.194  c0.78-3.019,1.454-5.619,3.81-6.014c2.217-0.372,3.862,2.196,4.188,4.192c0.455,2.659-0.141,5.667-1.58,8.047l-0.479,0.781  l5.256-2.192l0.028-0.156c0.39-2.07,0.382-4.299-0.017-6.621c-0.504-3.028-2.048-5.65-4.22-7.19  C275.648,120.77,273.855,120.309,272.18,120.588 M275.583,152.998c-3.753-0.354-5.801,3.219-7.607,6.37  c-1.496,2.597-2.902,5.057-4.976,4.866c-2.811-0.267-2.625-3.876-2.559-4.59c0.18-2,1.225-4.042,2.663-5.192l0.578-0.467  l-4.998-0.462l-0.078,0.202c-0.697,1.649-1.133,3.442-1.301,5.339c-0.314,3.268,0.347,6.146,1.805,7.893  c0.963,1.167,2.265,1.834,3.845,1.984c4.274,0.395,6.29-3.182,8.068-6.34c1.529-2.708,2.847-5.051,5.234-4.833  c2.223,0.211,3.157,3.121,2.966,5.134c-0.249,2.687-1.596,5.434-3.597,7.363l-0.662,0.635l5.623-0.767l0.074-0.145  c0.906-1.9,1.481-4.058,1.696-6.4c0.287-3.053-0.53-5.982-2.232-8.035C278.888,154.063,277.275,153.153,275.583,152.998   M79.194,254.017c2.34-2.951,0.47-6.613-1.176-9.853c-1.361-2.672-2.646-5.194-1.354-6.823c1.762-2.214,4.674-0.083,5.236,0.36  c1.577,1.254,2.712,3.246,2.9,5.081l0.072,0.733l3.121-3.932l-0.123-0.182c-1.005-1.471-2.271-2.825-3.77-4.004  c-2.561-2.042-5.33-3.064-7.591-2.804c-1.501,0.172-2.774,0.89-3.762,2.136c-2.666,3.36-0.774,7.005,0.89,10.221  c1.436,2.76,2.681,5.146,1.191,7.018c-1.389,1.75-4.336,0.945-5.925-0.315c-2.107-1.678-3.679-4.312-4.189-7.046l-0.176-0.897  l-2.436,5.137l0.081,0.138c1.095,1.793,2.591,3.459,4.438,4.907c2.405,1.916,5.302,2.837,7.945,2.534  C76.495,256.205,78.138,255.349,79.194,254.017 M149.981,275.728c0.264-3.756-3.349-5.729-6.535-7.465  c-2.638-1.427-5.122-2.783-4.982-4.868c0.207-2.816,3.822-2.702,4.54-2.652c2.004,0.138,4.061,1.138,5.255,2.549l0.483,0.56l0.339-5  l-0.2-0.086c-1.659-0.647-3.462-1.047-5.365-1.179c-3.271-0.231-6.135,0.493-7.852,1.982c-1.146,0.994-1.789,2.305-1.897,3.891  c-0.305,4.281,3.327,6.218,6.515,7.925c2.746,1.467,5.112,2.736,4.945,5.117c-0.156,2.235-3.038,3.232-5.063,3.091  c-2.687-0.197-5.47-1.476-7.444-3.439l-0.65-0.649l0.896,5.62l0.148,0.063c1.925,0.868,4.079,1.386,6.431,1.545  c3.067,0.224,5.967-0.658,7.99-2.408C149.003,279.055,149.861,277.421,149.981,275.728 M261.34,172.333  c-1.859-0.557-3.757-1.075-4.22-2.941l-0.521-0.063l-1.317,6.097l0.521,0.288c1.401-1.335,2.709-0.903,4.527-0.367  c0.099,0.029,12.331,3.67,12.331,3.67s-17.752,7.104-17.919,7.167c-1.482,0.556-2.853,0.825-2.853,0.825l-2.011,5.083l0.423,0.251  c1.273-1.258,3.262-0.693,5.131-0.131l13.694,4.292c1.867,0.553,3.148,0.888,3.411,2.785l0.495,0.044l2.195-5.9l-0.423-0.246  c-1.439,1.325-2.842,0.839-4.667,0.297c0,0-11.101-3.528-12.556-3.957c1.462-0.583,17.677-7.037,17.677-7.037  c2.286-0.885,3.998-2.032,5.429-4.446L261.34,172.333 M38.035,169.298c1.938-0.146,3.893-0.335,5,1.239l0.512-0.125l-0.951-6.164  l-0.586-0.083c-0.84,1.747-2.211,1.81-4.102,1.957c-0.097,0.003-12.827,0.966-12.827,0.966S39.136,154.119,39.271,154  c1.185-1.041,2.367-1.782,2.367-1.782l0.066-5.464l-0.479-0.081c-0.746,1.623-2.806,1.802-4.754,1.949l-14.32,0.87  c-1.945,0.147-3.258,0.291-4.184-1.39l-0.476,0.143l0.06,6.284l0.476,0.081c0.875-1.753,2.352-1.79,4.249-1.935  c0,0,11.627-0.665,13.142-0.78c-1.153,1.072-14.007,12.875-14.007,12.875c-1.813,1.634-3.004,3.322-3.474,6.086L38.035,169.298   M267.051,201.393l-0.373,0.203c0.567,2.393,0.031,4.62-1.184,6.463c0,0-2.414,3.731-2.812,4.324  c-0.431-0.23-6.598-3.57-7.067-3.825c0.222-0.41,1.602-3.123,1.602-3.123c0.54-1,1.21-2.559,2.5-2.819l0.09-0.41l-3.621-1.917  c0,0-0.158,1.113-0.527,1.744c-0.031,0-2.756,5.054-2.756,5.054l-5.362-2.897l1.8-4.218c0.692-1.58,1.875-3.002,3.364-3.392  l0.077-0.49l-3.968-2.172c0,0-0.113,1.009-0.622,2.038l-6.305,11.507l0.426,0.29c1.188-1.029,3.158,0.125,4.494,0.871l12.743,6.895  c1.352,0.721,3.393,1.725,3.151,3.255l0.483,0.213l7.364-13.846L267.051,201.393 M187.751,264.543  c0.68-0.254,5.14-1.903,5.805-2.151c-0.484-0.548-4.814-5.434-5.638-6.359C187.892,257.268,187.764,263.813,187.751,264.543   M207.038,269.705l-6.954,3.104l-0.213-0.46c0.742-1.06,0.482-1.73-0.631-2.975l-3.746-4.275l-8.097,3.001l0.013,5.184  c0.033,2.352,0.274,2.684,1.627,2.99l0.129,0.472l-6.376,1.766l-0.197-0.458c1.182-1.208,1.286-1.842,1.464-4.71  c0,0,0.445-16.83,0.433-16.845c-0.015-2.684-1.367-2.693-1.367-2.693l-0.042-0.528l5.42-1.931l13.897,15.217  c1.715,1.766,2.644,2.616,4.554,2.66L207.038,269.705z M51.394,194.755l-0.518,0.103c-0.018,1.878-2.301,2.041-5.421,2.061  c0,0-11.851,0.084-13.271,0.1c1.084-0.962,12.097-10.62,12.097-10.62c0.644-0.571,2.011-1.525,3.07-1.863  c0.003,0-1.732-5.575-1.732-5.575l-0.482,0.05c-0.314,1.351-2.148,2.859-3.396,3.936l-12.384,10.933  c-2.113,1.864-2.313,2.819-2.79,5.131l-0.248,1.204l27.701-0.093L51.394,194.755 M259.741,109.127l5.439,2.514l2.521-5.449  l-5.45-2.508L259.741,109.127 M40.353,109.136l-2.489-5.449l-5.451,2.496l2.483,5.453L40.353,109.136 M202.718,50.824  c1.205,4.645,1.93,6.247,3.534,7.596l-0.295,0.435l-2.402-1.279c-2.214-1.468-3.857-3.156-4.481-5.55l-2.994-13.623l8.47-3.851  c3.318-1.568,2.578-3.205,2.265-3.552l0.267-0.446l6.039,3.08l-13.035,6.373L202.718,50.824 M192.458,45.221  c-0.687,1.473-1.586,3.433-0.477,4.527l-0.27,0.426l-6.473-2.486l0.166-0.467c1.672,0.091,2.525-2.248,3.174-3.75l5.901-13.217  c0.634-1.39,1.486-3.183,0.373-4.281l0.275-0.43l6.413,2.546l-0.141,0.475c-1.556-0.128-2.433,2.012-3.05,3.421L192.458,45.221z   M93.497,58.419c-1.931,0.833-3.693,0.752-8.375-0.26c0,0-9.449-2.214-9.47-2.214c0.891-1.311,2.678-5.296,0.024-8.276  c-2.457-2.756-6.308-2.774-9.93,0.229l-6.422,5.638l0.251,0.432c1.452-0.507,2.756,1.058,3.764,2.299l9.341,11.248  c0.984,1.146,2.574,3.054,1.793,4.362l0.407,0.282l5.275-4.739l-0.257-0.417c-1.449,0.539-2.963-0.991-3.986-2.248l-10.41-12.54  L67,50.649c1.066-1.044,3.828-2.035,5.679,0.072c2.25,2.58-0.039,5.913-1.585,7.645l13.459,3.587  c2.415,0.521,4.657-0.188,6.968-1.501l2.22-1.574L93.497,58.419 M117.526,266.148c0.702,0.167,5.331,1.28,6.026,1.442  c-0.096-0.728-0.979-7.196-1.15-8.421C121.694,260.181,117.953,265.549,117.526,266.148 M130.68,281.171l-7.507-1.288l0.089-0.505  c1.2-0.464,1.352-1.17,1.128-2.825l-0.74-5.636l-8.389-2.011l-2.878,4.314c-1.279,1.975-1.26,2.386-0.32,3.393l-0.147,0.458  l-6.277-2.079l0.095-0.487c1.643-0.348,2.081-0.821,3.831-3.101c0,0,9.73-13.731,9.73-13.764c1.481-2.238,0.364-2.995,0.364-2.995  l0.261-0.46l5.572,1.412l3.088,20.379c0.437,2.418,0.728,3.644,2.301,4.738L130.68,281.171z M101.477,272.875  c-1.172-1.586-0.595-2.879,0.176-4.693c0,0,6.093-14.368,6.316-14.905c0.458,0.194,2.699,1.145,2.699,1.145  c1.481,0.631,2.34,1.395,2.314,2.298l0.452,0.15l2.979-3.815c0,0-1.164-0.012-2.164-0.407c-1.017-0.392-12.465-5.242-13.158-5.58  c-0.692-0.323-1.38-1.078-1.38-1.078l-3.034,3.693l0.222,0.383c0,0,1.881-0.551,4.512,0.437l2.638,1.116l-6.319,14.907  c-0.542,1.333-1.323,3.277-2.69,3.428c-0.089,0.006-0.242,0.04-0.33,0.034l-0.098,0.515l6.564,2.8L101.477,272.875 M85.463,265.286  c-0.841-1.132,0.123-2.879,1.041-4.384l7.42-12.514c0.868-1.424,1.871-3.33,3.36-3.045l0.213-0.474l-5.856-3.477l-0.333,0.378  c0.958,1.208-0.26,3.102-1.041,4.446l-7.391,12.456c-0.775,1.332-1.882,3.324-3.39,3.063l-0.209,0.482l5.872,3.479L85.463,265.286   M60.249,248.701c-0.896-1.888-0.896-3.646-0.125-8.378c0,0,1.136-7.25,1.261-7.956c2.236,1.508,5.977,1.938,8.3-0.198  c2.721-2.499,2.589-6.394-0.521-9.914l-5.425-6.57l-0.424,0.273c0.55,1.43-0.979,2.785-2.198,3.83l-11.769,9.488  c-1.401,1.043-2.658,2.1-3.992,1.361l-0.269,0.417l4.416,5.325l0.422-0.213c-0.577-1.436,0.784-2.491,2.28-3.733l12.833-10.41  l1.413,1.562c1.167,1.281,2.331,3.8,0.095,5.673c-2.629,2.211-5.843,0.174-7.567-1.265l-0.23-0.181l-2.301,12.119  c-0.392,2.433,0.389,4.644,1.756,6.899l1.602,2.145L60.249,248.701 M46.227,224.61l0.003-0.424c-2.343-0.74-3.974-2.333-4.949-4.318  c0,0-1.975-3.976-2.28-4.622c0.43-0.254,6.442-3.848,6.902-4.129c0.237,0.407,1.859,2.979,1.859,2.979  c0.586,0.981,1.586,2.342,1.157,3.58l0.297,0.292l3.5-2.139c0,0-0.882-0.698-1.232-1.341c0.015-0.029-2.938-4.951-2.938-4.951  l5.23-3.127l2.713,3.698c1.003,1.401,1.625,3.145,1.195,4.618l0.379,0.323l3.905-2.307c0,0-0.816-0.602-1.443-1.568l-6.677-11.302  l-0.467,0.229c0.279,1.537-1.714,2.641-3.043,3.413l-12.432,7.427c-1.311,0.807-3.217,2.046-4.408,1.055l-0.434,0.306l8.153,13.413  L46.227,224.61 M22.386,183.654c0.23-1.379,2.16-1.908,3.881-2.3l14.155-3.349c1.625-0.36,3.693-0.975,4.519,0.302l0.502-0.173  l-1.574-6.634l-0.502,0.034c-0.197,1.525-2.412,1.959-3.929,2.327l-14.09,3.339c-1.492,0.38-3.7,0.96-4.556-0.311l-0.488,0.188  l1.574,6.636L22.386,183.654 M22.102,123.083c-1.853,1.277-3.142,3.569-3.527,6.285c-0.079,0.526-0.118,1.098-0.118,1.686  c0.009,1.845,0.563,3.82,1.772,5.356c-0.673-0.096-2.043-0.291-2.043-0.291l-0.452,5.532l0.556,0.169  c0.743-1.374,2.594-1.031,4.108-0.8l14.329,2.044c1.535,0.208,4.249,0.452,4.581,1.986l0.475-0.026l0.563-6.748l-0.515-0.154  c-0.736,1.335-2.957,0.973-4.464,0.74l-11.173-1.599c-1.338-0.188-2.11-0.298-2.959-1.126c-1.333-1.257-1.954-3.229-1.66-5.288  c0.232-1.598,0.847-2.786,1.848-3.537c1.234-0.921,3.107-1.218,5.554-0.871l9.958,1.421c1.514,0.198,3.76,0.47,4.099,1.963  l0.521-0.003l1.46-6.636l-0.426-0.137c-0.708,1.248-3.233,0.888-4.996,0.614l-10.018-1.436  C26.809,121.829,24.445,121.485,22.102,123.083 M119.8,212.196h-0.098c-2.227,2.762-5.491,4.231-8.958,5.254v0.11l3.261,0.856  v11.253c0,2.001-0.051,3.415-1.96,4.6v0.095h9.437v-0.095c-1.779-0.874-1.681-2.75-1.681-4.433V212.196 M143.424,212.196  c-4.274,0-8.02,1.379-10.847,3.722c-3.038,2.499-4.743,5.728-4.743,9.657c0,5.416,3.258,9.216,8.848,9.216  c4.675,0,8.383-3.019,8.383-7.826c0-3.948-2.594-7.078-6.702-7.078l-1.126,0.063l-2.411,3.281h0.103  c0.364-0.214,0.867-0.328,1.364-0.328c2.369,0,3.058,2.516,3.058,4.419c0,1.621-0.426,4.221-2.567,4.221  c-2.597,0-3.118-3.695-3.118-5.619c0-5.795,2.923-9.493,8.524-11.007L143.424,212.196 M154.123,223.901h1.552  c1.296,0,2.553,0.072,3.636,0.862c0.874,0.691,1.319,1.658,1.319,2.771c0,2.417-1.953,4.048-4.312,4.048  c-1.693,0-3.635-0.57-5.113-1.392l0.925,3.992c1.643,0.392,3.316,0.607,5.003,0.607c4.389,0,9.826-2.063,9.826-7.224  c0-3.039-2.148-5.134-5-5.766c2.095-0.559,3.663-2.309,3.663-4.514c0-1.751-1.22-3.185-2.655-4.006  c-1.394-0.755-3.139-1.084-4.704-1.084c-1.815,0-3.669,0.309-5.425,0.775l-1.076,3.692c1.298-0.664,3.029-1.355,4.485-1.355  c1.639,0,3.194,0.759,3.194,2.65c0,2.655-2.549,3.022-4.609,3.022h-0.709V223.901 M174.932,213.28l-1.376,4.512  c1.47-1.093,3.321-2.188,5.246-2.188c1.273,0,2.317,0.799,2.317,2.188c0,1.191-0.818,2.69-1.383,3.713l-2.541,4.601l-5.007,8.259  h15.538l1.526-4.763c-2.025,0.997-3.621,1.589-5.861,1.589c-0.884,0-1.745-0.068-2.595-0.272l0.392-0.595l3.862-6.062  c1.072-1.928,2.557-4.375,2.557-6.601c0-3.631-3.687-5.464-6.877-5.464C178.823,212.196,176.723,212.556,174.932,213.28   M92.813,98.196h114.372l-57.187-27.234L92.813,98.196 M90.085,109.085H209.91v-5.443H90.085V109.085z M90.085,204.402h32.681  v-16.34H90.085V204.402z M177.23,204.402h32.68v-16.34h-32.68V204.402z M133.653,204.402h10.903v-16.34h-10.903V204.402z   M155.446,204.402h10.896v-16.34h-10.896V204.402z M99.622,114.527h-8.175l-1.361,68.088h10.897L99.622,114.527 M121.412,114.527  h-8.182l-1.361,68.088h10.897L121.412,114.527 M143.187,114.527h-8.166l-1.367,68.088h10.903L143.187,114.527 M164.979,114.527  h-8.175l-1.357,68.088h10.896L164.979,114.527 M186.77,114.527h-8.169l-1.37,68.088h10.897L186.77,114.527 M208.553,114.527h-8.178  l-1.351,68.088h10.886L208.553,114.527 M149.999,57.346L90.085,85.938v6.804l59.914-28.596l59.911,28.596v-6.804L149.999,57.346"/>
</svg>